<svg id="Layer_1" data-name="Layer 1" xmlns="http://www.w3.org/2000/svg" viewBox="0 0 602 137.05"><defs><style>.cls-1{fill:#fff;}</style></defs><path class="cls-1" d="M202.76,86H174.41a9,9,0,0,0,0,18h28.35a23.18,23.18,0,0,0,0-46.35H188.58a5.18,5.18,0,0,1,0-10.35H214.1a9,9,0,0,0,0-18H188.58a23.18,23.18,0,0,0,0,46.35h14.18a5.18,5.18,0,0,1,0,10.35Z" transform="translate(-0.97 -1)"/><path class="cls-1" d="M494.73,86H466.38a9,9,0,0,0,0,18h28.35a23.18,23.18,0,0,0,0-46.35H480.55a5.18,5.18,0,0,1,0-10.35h25.52a9,9,0,1,0,0-18H480.55a23.18,23.18,0,0,0,0,46.35h14.18a5.18,5.18,0,0,1,0,10.35Z" transform="translate(-0.97 -1)"/><path class="cls-1" d="M302,103.31h54.8a9,9,0,0,0,0-18H311V61.52h44.86a9,9,0,0,0,0-18H311V19h45.8a9,9,0,0,0,0-18H302a9,9,0,0,0-9,9V94.31A9,9,0,0,0,302,103.31Z" transform="translate(-0.97 -1)"/><path class="cls-1" d="M120.55,104h25.51a9,9,0,0,0,0-18H120.55a19.34,19.34,0,0,1-17.12-10.35H148.9a9,9,0,0,0,9-9A37.35,37.35,0,1,0,120.55,104Zm0-56.7a19.38,19.38,0,0,1,17.13,10.35H103.43a19.35,19.35,0,0,1,17.12-10.32Z" transform="translate(-0.97 -1)"/><path class="cls-1" d="M12.84,104a9,9,0,0,0,9-9V75.69H37.45l25.71,25.68a9,9,0,0,0,12.73-12.7l-17.3-17.3A37.33,37.33,0,0,0,41.18,1H12.84a9,9,0,0,0-9,9V95a9,9,0,0,0,9,9ZM41.18,19a19.35,19.35,0,0,1,.88,38.69c-.29,0-.59,0-.88,0H21.84V19Z" transform="translate(-0.97 -1)"/><path class="cls-1" d="M270.79,104a9,9,0,0,0,0-18,19.37,19.37,0,0,1-19.35-19.35,8.42,8.42,0,0,0-.12-1.42,8.39,8.39,0,0,0,.12-1.41V47.37h19.35a9,9,0,1,0,0-18H251.44V10a9,9,0,0,0-18,0V63.86a8.39,8.39,0,0,0,.12,1.41,8.42,8.42,0,0,0-.12,1.42A37.4,37.4,0,0,0,270.79,104Z" transform="translate(-0.97 -1)"/><path class="cls-1" d="M381.34,47.37h29.08a19.39,19.39,0,0,1,17.05,10.32h-31.3a23.18,23.18,0,0,0,0,46.35h42.52a9,9,0,0,0,9-9V66.69a37.39,37.39,0,0,0-37.35-37.32h-29a9,9,0,0,0,0,18Zm48.35,38.7H396.17a5.18,5.18,0,0,1,0-10.35h33.52Z" transform="translate(-0.97 -1)"/><path class="cls-1" d="M594,29.37a9,9,0,0,0-9,9V66.69a19.35,19.35,0,0,1-38.69.88c0-.29,0-.59,0-.88V38.37a9,9,0,0,0-18,0V66.69A37.33,37.33,0,0,0,585,98.63v2.08a19.37,19.37,0,0,1-19.35,19.34H10a9,9,0,0,0,0,18H565.59A37.38,37.38,0,0,0,603,100.71V38.37A9,9,0,0,0,594,29.37Z" transform="translate(-0.97 -1)"/></svg>