<svg id="Layer_1" data-name="Layer 1" xmlns="http://www.w3.org/2000/svg" viewBox="0 0 550.05 152.38"><defs><style>.cls-1,.cls-2{fill:none;stroke:#fff;stroke-linecap:round;stroke-linejoin:round;}.cls-1{stroke-width:10px;}.cls-2{stroke-width:7px;}</style></defs><path class="cls-1" d="M874.07,564.47v-72h36a18,18,0,0,1,0,36" transform="translate(-671.07 -487.47)"/><line class="cls-1" x1="221" y1="41" x2="239" y2="41"/><path class="cls-1" d="M982.07,528.47h18a18,18,0,0,0,0-36h-36v72" transform="translate(-671.07 -487.47)"/><line class="cls-1" x1="383" y1="5" x2="383" y2="77"/><line class="cls-1" x1="393.8" y1="41" x2="440.6" y2="41"/><line class="cls-1" x1="440.6" y1="5" x2="440.6" y2="77"/><path class="cls-1" d="M1216.07,492.47v36a36,36,0,0,1-36,36h-36" transform="translate(-671.07 -487.47)"/><path class="cls-1" d="M1198.07,528.47h-18a36,36,0,0,1-36-36" transform="translate(-671.07 -487.47)"/><path class="cls-1" d="M838.07,492.47v72h-18a36,36,0,0,1-36-36v-36" transform="translate(-671.07 -487.47)"/><path class="cls-1" d="M712.07,528.47a36,36,0,0,0-36-36v72" transform="translate(-671.07 -487.47)"/><path class="cls-1" d="M712.07,564.47v-72a36,36,0,0,1,36,36v36" transform="translate(-671.07 -487.47)"/><path class="cls-1" d="M910.07,528.47a18,18,0,0,1,18,18v18" transform="translate(-671.07 -487.47)"/><path class="cls-2" d="M1217.62,593.27v21.45a21.45,21.45,0,0,1-21.45,21.45h-21.45" transform="translate(-671.07 -487.47)"/><path class="cls-2" d="M1206.89,614.72h-10.72a21.45,21.45,0,0,1-21.45-21.45" transform="translate(-671.07 -487.47)"/><path class="cls-2" d="M768.86,636.17v-42.9H758.14a21.45,21.45,0,0,0-21.46,21.45v21.45" transform="translate(-671.07 -487.47)"/><line class="cls-2" x1="242.67" y1="127.25" x2="250.7" y2="127.25"/><path class="cls-2" d="M923.91,604" transform="translate(-671.07 -487.47)"/><path class="cls-2" d="M902.46,636.17v-42.9h21.45a10.73,10.73,0,1,1,0,21.45" transform="translate(-671.07 -487.47)"/><path class="cls-2" d="M923.91,614.72a10.73,10.73,0,0,1,10.73,10.73v10.72" transform="translate(-671.07 -487.47)"/><line class="cls-2" x1="461.87" y1="127.25" x2="470.91" y2="127.25"/><path class="cls-2" d="M1144.12,604" transform="translate(-671.07 -487.47)"/><path class="cls-2" d="M1122.67,636.17v-42.9h21.45a10.73,10.73,0,1,1,0,21.45" transform="translate(-671.07 -487.47)"/><path class="cls-2" d="M1144.12,614.72a10.72,10.72,0,0,1,10.73,10.73v10.72" transform="translate(-671.07 -487.47)"/><polyline class="cls-2" points="5 105.8 5 148.88 48.08 148.88"/><path class="cls-2" d="M883.65,614.81a21.54,21.54,0,1,1-21.54-21.54A21.54,21.54,0,0,1,883.65,614.81Z" transform="translate(-671.07 -487.47)"/><path class="cls-2" d="M1105,614.81a21.55,21.55,0,1,1-21.54-21.54A21.54,21.54,0,0,1,1105,614.81Z" transform="translate(-671.07 -487.47)"/><line class="cls-2" x1="97.08" y1="126.9" x2="76.54" y2="126.9"/><path class="cls-2" d="M989.57,636.17v-42.9H978.85a21.45,21.45,0,0,0-21.46,21.45v21.45" transform="translate(-671.07 -487.47)"/><line class="cls-2" x1="317.79" y1="126.9" x2="297.86" y2="126.9"/><path class="cls-2" d="M812.47,593.27a10.77,10.77,0,0,1,0,21.54" transform="translate(-671.07 -487.47)"/><path class="cls-2" d="M812.47,614.81a10.77,10.77,0,0,1,0,21.54" transform="translate(-671.07 -487.47)"/><polyline class="cls-2" points="141.4 105.8 119.86 105.8 119.86 148.88"/><line class="cls-2" x1="141.4" y1="127.34" x2="130.14" y2="127.34"/><line class="cls-2" x1="141.4" y1="148.88" x2="130.14" y2="148.88"/><line class="cls-2" x1="336.97" y1="105.8" x2="380.05" y2="105.8"/><line class="cls-2" x1="358.51" y1="105.8" x2="358.51" y2="148.88"/></svg>