<svg id="Layer_1" data-name="Layer 1" xmlns="http://www.w3.org/2000/svg" viewBox="0 0 550 151.38"><defs><style>.cls-1,.cls-2{fill:none;stroke:#fff;stroke-linecap:round;stroke-linejoin:round;}.cls-1{stroke-width:10px;}.cls-2{stroke-width:5px;}</style></defs><path class="cls-1" d="M887.76,541.07v-72h36a18,18,0,0,1,0,36" transform="translate(-684.76 -464.07)"/><line class="cls-1" x1="221" y1="41" x2="239" y2="41"/><path class="cls-1" d="M995.76,505.07h18a18,18,0,0,0,0-36h-36v72" transform="translate(-684.76 -464.07)"/><line class="cls-1" x1="383" y1="5" x2="383" y2="77"/><line class="cls-1" x1="393.8" y1="41" x2="440.6" y2="41"/><line class="cls-1" x1="440.6" y1="5" x2="440.6" y2="77"/><path class="cls-1" d="M1229.76,469.07v36a36,36,0,0,1-36,36h-36" transform="translate(-684.76 -464.07)"/><path class="cls-1" d="M1211.76,505.07h-18a36,36,0,0,1-36-36" transform="translate(-684.76 -464.07)"/><path class="cls-1" d="M851.76,469.07v72h-18a36,36,0,0,1-36-36v-36" transform="translate(-684.76 -464.07)"/><path class="cls-1" d="M725.76,505.07a36,36,0,0,1,36-36v72" transform="translate(-684.76 -464.07)"/><path class="cls-1" d="M725.77,541.07v-72a36,36,0,0,0-36,36v36" transform="translate(-684.76 -464.07)"/><path class="cls-1" d="M923.76,505.07a18,18,0,0,1,18,18v18" transform="translate(-684.76 -464.07)"/><path class="cls-2" d="M1231.31,569.87v21.45a21.45,21.45,0,0,1-21.45,21.45h-21.45" transform="translate(-684.76 -464.07)"/><path class="cls-2" d="M1220.59,591.32h-10.73a21.45,21.45,0,0,1-21.45-21.45" transform="translate(-684.76 -464.07)"/><path class="cls-2" d="M782.56,612.77v-42.9H771.83a21.46,21.46,0,0,0-21.45,21.45v21.45" transform="translate(-684.76 -464.07)"/><line class="cls-2" x1="241.67" y1="127.25" x2="250.7" y2="127.25"/><path class="cls-2" d="M937.61,580.6" transform="translate(-684.76 -464.07)"/><path class="cls-2" d="M916.16,612.77v-42.9h21.45a10.73,10.73,0,0,1,0,21.45" transform="translate(-684.76 -464.07)"/><path class="cls-2" d="M937.61,591.32a10.72,10.72,0,0,1,10.72,10.73v10.72" transform="translate(-684.76 -464.07)"/><line class="cls-2" x1="461.87" y1="127.25" x2="470.91" y2="127.25"/><path class="cls-2" d="M1157.82,580.6" transform="translate(-684.76 -464.07)"/><path class="cls-2" d="M1136.37,612.77v-42.9h21.45a10.73,10.73,0,0,1,0,21.45" transform="translate(-684.76 -464.07)"/><path class="cls-2" d="M1157.82,591.32a10.72,10.72,0,0,1,10.72,10.73v10.72" transform="translate(-684.76 -464.07)"/><polyline class="cls-2" points="5 105.8 5 148.88 48.08 148.88"/><path class="cls-2" d="M897.35,591.42a21.55,21.55,0,1,1-21.55-21.55A21.55,21.55,0,0,1,897.35,591.42Z" transform="translate(-684.76 -464.07)"/><path class="cls-2" d="M1118.67,591.42a21.55,21.55,0,1,1-21.55-21.55A21.55,21.55,0,0,1,1118.67,591.42Z" transform="translate(-684.76 -464.07)"/><line class="cls-2" x1="97.08" y1="126.9" x2="75.54" y2="126.9"/><path class="cls-2" d="M1003.27,612.77v-42.9H992.54a21.45,21.45,0,0,0-21.45,21.45v21.45" transform="translate(-684.76 -464.07)"/><line class="cls-2" x1="317.79" y1="126.9" x2="297.86" y2="126.9"/><path class="cls-2" d="M826.17,569.87a10.78,10.78,0,0,1,0,21.55" transform="translate(-684.76 -464.07)"/><path class="cls-2" d="M826.17,591.42a10.77,10.77,0,1,1,0,21.54" transform="translate(-684.76 -464.07)"/><polyline class="cls-2" points="141.4 105.8 119.86 105.8 119.86 148.88"/><line class="cls-2" x1="141.4" y1="127.34" x2="129.14" y2="127.34"/><line class="cls-2" x1="141.4" y1="148.88" x2="129.14" y2="148.88"/><line class="cls-2" x1="336.97" y1="105.8" x2="380.05" y2="105.8"/><line class="cls-2" x1="358.51" y1="105.8" x2="358.51" y2="148.88"/></svg>