<?xml version="1.0" encoding="UTF-8"?>
<svg id="Layer_1" xmlns="http://www.w3.org/2000/svg" version="1.1" viewBox="0 0 155.4 32">
  <!-- Generator: Adobe Illustrator 29.3.1, SVG Export Plug-In . SVG Version: 2.1.0 Build 151)  -->
  <defs>
    <style>
      .st0 {
        fill: #fff;
      }
    </style>
  </defs>
  <path class="st0" d="M0,16c0,8.8,7.2,16,16,16s16-7.2,16-16S24.8,0,16,0,0,7.2,0,16ZM28.6,16c0,6.9-5.6,12.6-12.6,12.6S3.4,22.9,3.4,16,9.1,3.4,16,3.4s12.6,5.6,12.6,12.6Z"/>
  <path class="st0" d="M4.6,16c0,6.3,5.1,11.4,11.4,11.4s11.4-5.1,11.4-11.4-5.1-11.4-11.4-11.4-11.4,5.1-11.4,11.4ZM24,16c0,4.4-3.6,8-8,8s-8-3.6-8-8,3.6-8,8-8,8,3.6,8,8Z"/>
  <g>
    <path class="st0" d="M102.7,24v-16h3v13.3h8.9v2.7h-11.9ZM126.4,24v-1.7h-.1c-.8,1.2-2.3,1.9-4.2,1.9-3.3,0-5.8-2.5-5.8-6.1s2.4-6.1,5.8-6.1,3.3.7,4.2,1.9h0v-1.7h2.3v11.7s-2.2,0-2.2,0ZM126,18.1c0-2.2-1.4-3.8-3.6-3.8s-3.6,1.5-3.6,3.8,1.4,3.7,3.6,3.7c2.1,0,3.6-1.5,3.6-3.7ZM143.9,18.1c0,3.5-2.4,6.1-5.8,6.1s-3.4-.7-4.2-1.9h0v1.7h-2.3v-16h2.6v5.5h0c.9-.9,2.2-1.5,3.9-1.5,3.4,0,5.8,2.6,5.8,6.1ZM141.2,18.1c0-2.2-1.5-3.8-3.6-3.8s-3.6,1.5-3.6,3.8,1.5,3.7,3.6,3.7c2.1,0,3.6-1.5,3.6-3.7ZM154.6,12.9v2.7h-.1c-.8-.8-2-1.2-3.6-1.2s-2.2.6-2.2,1.4.5,1,2.2,1.1c3.1.2,4.4,1.3,4.4,3.7s-1.8,3.7-4.7,3.7-3.5-.4-4.4-1.1v-2.8h.1c1,1,2.4,1.6,4.2,1.6s2.2-.5,2.2-1.4-.5-1.1-2.4-1.3c-3.1-.2-4.2-1.2-4.2-3.4s1.9-3.8,4.7-3.8c1.5,0,2.9.3,3.7.9h0Z"/>
    <path class="st0" d="M51.2,8c4,0,6.1,1.8,6.1,5.4s-2.1,5.3-6.1,5.3h-3.6v5.3h-3v-16h6.6ZM51.1,16c2.2,0,3.2-.9,3.2-2.7s-1-2.7-3.2-2.7h-3.5v5.4h3.5ZM68.5,24v-1.8h-.2c-.8,1.3-2.1,2-3.9,2-3,0-4.7-1.9-4.7-5.1v-6.9h2.7v6.6c0,1.9,1,3,2.7,3s3-1.3,3-3.5v-6.2h2.7v11.8h-2.2ZM94,8h2.7v16h-2.7v-16ZM91,12.2v11.8h-2.7v-11.8h2.7ZM86,18.1c0,3.5-2.4,6.1-5.8,6.1s-3-.5-3.9-1.5h0v5.5h-2.7V12.2h2.2v1.7h.1c.8-1.2,2.3-1.9,4.2-1.9,3.3,0,5.8,2.6,5.8,6.1ZM83.3,18.1c0-2.2-1.5-3.8-3.6-3.8s-3.6,1.5-3.6,3.8,1.5,3.8,3.6,3.8c2.1,0,3.6-1.6,3.6-3.8ZM88.3,8h2.7v2.6h-2.7v-2.6Z"/>
  </g>
</svg>