<?xml version="1.0" encoding="utf-8"?>
<!-- Generator: Adobe Illustrator 25.2.1, SVG Export Plug-In . SVG Version: 6.00 Build 0)  -->
<svg version="1.1" id="Layer_1" xmlns="http://www.w3.org/2000/svg" xmlns:xlink="http://www.w3.org/1999/xlink" x="0px" y="0px"
	 viewBox="0 0 602 137.1" style="enable-background:new 0 0 602 137.1;" xml:space="preserve">
<path d="M201.8,85h-28.3c-5,0-9,4-9,9s4,9,9,9h28.4c12.8-0.3,23-10.9,22.7-23.7c-0.3-12.4-10.3-22.4-22.7-22.7h-14.2
	c-2.9-0.1-5.1-2.5-4.9-5.4c0.1-2.7,2.3-4.8,4.9-4.9h25.5c5,0,9-4,9-9s-4-9-9-9l0,0h-25.5c-12.8,0.3-23,10.9-22.7,23.7
	c0.3,12.4,10.3,22.4,22.7,22.7h14.2c2.9,0.1,5.1,2.5,4.9,5.4C206.6,82.7,204.5,84.9,201.8,85L201.8,85z"/>
<path d="M493.8,85h-28.4c-5,0-9,4-9,9s4,9,9,9h28.4c12.8-0.3,23-10.9,22.7-23.7c-0.3-12.4-10.3-22.4-22.7-22.7h-14.2
	c-2.9-0.1-5.1-2.5-4.9-5.4c0.1-2.7,2.3-4.8,4.9-4.9h25.5c5,0,9-4,9-9s-4-9-9-9l0,0h-25.5c-12.8,0.3-23,10.9-22.7,23.7
	c0.3,12.4,10.3,22.4,22.7,22.7h14.2c2.9,0.1,5.1,2.5,4.9,5.4C498.6,82.7,496.4,84.9,493.8,85L493.8,85z"/>
<path d="M301,102.3h54.8c5,0,9-4,9-9s-4-9-9-9H310V60.5h44.9c5,0,9-4,9-9s-4-9-9-9H310V18h45.8c5,0,9-4,9-9s-4-9-9-9H301
	c-5,0-9,4-9,9v84.3C292,98.3,296.1,102.3,301,102.3z"/>
<path d="M119.6,103h25.5c5,0,9-4,9-9s-4-9-9-9h-25.5c-7.2,0-13.8-4-17.1-10.3h45.5c5,0,9-4,9-9l0,0c0-20.6-16.7-37.3-37.3-37.3
	C99,28.3,82.2,45,82.2,65.7S99,103,119.6,103L119.6,103z M119.6,46.3c7.2,0,13.8,4,17.1,10.4h-34.3
	C105.8,50.3,112.4,46.3,119.6,46.3L119.6,46.3z"/>
<path d="M11.9,103c5,0,9-4,9-9V74.7h15.6l25.7,25.7c3.7,3.4,9.4,3.1,12.7-0.6c3.1-3.4,3.2-8.7,0-12.1L57.6,70.4
	C75.9,60.8,82.9,38.2,73.3,20C66.8,7.7,54.1,0,40.2,0H11.9c-5,0-9,4-9,9v85C2.9,99,6.9,103,11.9,103z M40.2,18
	c10.7-0.2,19.5,8.2,19.8,18.9c0.2,10.7-8.2,19.5-18.9,19.8c-0.3,0-0.6,0-0.9,0H20.9V18H40.2z"/>
<path d="M269.8,103c5,0,9-4,9-9s-4-9-9-9c-10.7,0-19.3-8.7-19.4-19.3c0-0.5,0-1-0.1-1.4c0.1-0.5,0.1-0.9,0.1-1.4V46.4h19.4
	c5,0,9-4,9-9s-4-9-9-9h-19.4V9c0-5-4-9-9-9s-9,4-9,9v53.9c0,0.5,0,0.9,0.1,1.4c-0.1,0.5-0.1,0.9-0.1,1.4
	C232.5,86.3,249.2,103,269.8,103z"/>
<path d="M380.4,46.4h29.1c7.2,0,13.7,4,17,10.3h-31.3c-12.8,0.3-23,10.9-22.7,23.7c0.3,12.4,10.3,22.4,22.7,22.7h42.5c5,0,9-4,9-9
	V65.7c0-20.6-16.7-37.3-37.4-37.3h-29c-5,0-9,4-9,9S375.4,46.4,380.4,46.4L380.4,46.4L380.4,46.4z M428.7,85.1h-33.5
	c-2.9-0.1-5.1-2.5-4.9-5.4c0.1-2.7,2.3-4.8,4.9-4.9h33.5V85.1z"/>
<path d="M593,28.4c-5,0-9,4-9,9c0,0,0,0,0,0v28.3c0.2,10.7-8.2,19.5-18.9,19.8c-10.7,0.2-19.5-8.2-19.8-18.9l0,0c0-0.3,0-0.6,0-0.9
	V37.4c0-5-4-9-9-9s-9,4-9,9v28.3c0,20.6,16.7,37.3,37.3,37.4c6.8,0,13.5-1.9,19.4-5.4v2.1c0,10.7-8.7,19.3-19.3,19.3H9c-5,0-9,4-9,9
	s4,9,9,9h555.6c20.6,0,37.4-16.7,37.4-37.3V37.4C602,32.4,598,28.4,593,28.4z"/>
</svg>
