<svg id="Layer_1" data-name="Layer 1" xmlns="http://www.w3.org/2000/svg" viewBox="0 0 603.94 139.06"><defs><style>.cls-1{fill:none;stroke:#231f20;stroke-miterlimit:10;stroke-width:2px;}</style></defs><title>RestEasy_logo</title><path class="cls-1" d="M206.79,115.67H178.44a9,9,0,0,0,0,18h28.35a23.18,23.18,0,0,0,0-46.35H192.61a5.18,5.18,0,0,1,0-10.35h25.52a9,9,0,0,0,0-18H192.61a23.18,23.18,0,0,0,0,46.35h14.18a5.18,5.18,0,0,1,0,10.35Z" transform="translate(-4.03 -29.63)"/><path class="cls-1" d="M498.76,115.67H470.41a9,9,0,0,0,0,18h28.35a23.18,23.18,0,0,0,0-46.35H484.58a5.18,5.18,0,0,1,0-10.35H510.1a9,9,0,0,0,0-18H484.58a23.18,23.18,0,0,0,0,46.35h14.18a5.18,5.18,0,0,1,0,10.35Z" transform="translate(-4.03 -29.63)"/><path class="cls-1" d="M306,132.94h54.8a9,9,0,0,0,0-18H315V91.15h44.86a9,9,0,0,0,0-18H315V48.63h45.8a9,9,0,0,0,0-18H306a9,9,0,0,0-9,9v84.31A9,9,0,0,0,306,132.94Z" transform="translate(-4.03 -29.63)"/><path class="cls-1" d="M124.58,133.67h25.51a9,9,0,1,0,0-18H124.58a19.35,19.35,0,0,1-17.12-10.35h45.47a9,9,0,0,0,9-9,37.35,37.35,0,1,0-37.35,37.35Zm0-56.7a19.38,19.38,0,0,1,17.13,10.35H107.46A19.35,19.35,0,0,1,124.58,77Z" transform="translate(-4.03 -29.63)"/><path class="cls-1" d="M16.87,133.67a9,9,0,0,0,9-9V105.32H41.48L67.19,131A9,9,0,0,0,79.92,118.3L62.62,101A37.33,37.33,0,0,0,45.21,30.63H16.87a9,9,0,0,0-9,9v85A9,9,0,0,0,16.87,133.67Zm28.34-85a19.35,19.35,0,1,1,0,38.69H25.87V48.63Z" transform="translate(-4.03 -29.63)"/><path class="cls-1" d="M274.82,133.67a9,9,0,1,0,0-18,19.37,19.37,0,0,1-19.35-19.35,9.6,9.6,0,0,0-.12-1.42,9.36,9.36,0,0,0,.12-1.41V77h19.35a9,9,0,0,0,0-18H255.47V39.63a9,9,0,0,0-18,0V93.49a9.36,9.36,0,0,0,.12,1.41,9.6,9.6,0,0,0-.12,1.42A37.4,37.4,0,0,0,274.82,133.67Z" transform="translate(-4.03 -29.63)"/><path class="cls-1" d="M385.37,77h29.08A19.4,19.4,0,0,1,431.5,87.32H400.2a23.18,23.18,0,0,0,0,46.35h42.52a9,9,0,0,0,9-9V96.32A37.39,37.39,0,0,0,414.37,59h-29a9,9,0,0,0,0,18Zm48.35,38.7H400.2a5.18,5.18,0,0,1,0-10.35h33.52Z" transform="translate(-4.03 -29.63)"/><path class="cls-1" d="M598,59a9,9,0,0,0-9,9V96.32a19.35,19.35,0,1,1-38.69,0V68a9,9,0,0,0-18,0V96.32A37.33,37.33,0,0,0,589,128.26v2.08a19.37,19.37,0,0,1-19.35,19.34H14a9,9,0,0,0,0,18H569.62A37.38,37.38,0,0,0,607,130.34V68A9,9,0,0,0,598,59Z" transform="translate(-4.03 -29.63)"/></svg>