<?xml version="1.0" encoding="UTF-8"?>
<svg id="LOGO" xmlns="http://www.w3.org/2000/svg" viewBox="0 0 7544.3 2821.32">
  <defs>
    <style>
      .cls-1 {
        fill: #ee3128;
      }

      .cls-2 {
        fill: #129a68;
      }

      .cls-3 {
        fill: #cf582c;
      }

      .cls-4 {
        fill: #afb8d1;
      }

      .cls-5 {
        fill: #fff;
      }

      .cls-6 {
        fill: #1f65b0;
      }

      .cls-7 {
        fill: #f7bf21;
      }

      .cls-8 {
        fill: #909caf;
      }

      .cls-9 {
        fill: #bcc9cb;
      }

      .cls-10 {
        fill: #afb8d2;
      }

      .cls-11 {
        fill: #f26b31;
      }

      .cls-12 {
        fill: #626e7f;
      }

      .cls-13 {
        fill: #feffff;
      }
    </style>
  </defs>
  <path d="M2785.87,1349.82h0l-.05-435.23-419.64-.21v-418.95h-420.29V75.57l-344.98-.8-89.82.75s-24.26-91.69-244.88-73C554.88,76,0,677.26,0,1408.14c0,780.48,632.7,1413.18,1413.18,1413.18,729.81,0,1330.38-553.22,1405.31-1263.16,12.26-157.52-32.62-208.35-32.62-208.35Z"/>
  <path id="SVGID" class="cls-4" d="M1439.53,1929.71c-159.93,0-352.48-18.37-494.25-37.12-20.83-155.43-26.08-323.77-26.08-501.21,0-715.13,186.23-1304.94,422.86-1359.94C624.19,70.53,54.04,670.78,54.04,1405.62s610.05,1376.28,1362.57,1376.28,1320.52-574.7,1360.37-1298.67c-36.85,252.54-634.15,446.48-1337.45,446.48Z"/>
  <path d="M1411.31,2789.78c-366.08,0-710.21-143.97-969.06-405.4C183.44,2122.9,40.92,1775.35,40.92,1405.68,40.92,670.3,609.94,63.25,1336.32,23.67c4.12-.21,7.61,2.68,8.19,6.69s-2.04,7.82-6,8.73c-233.74,54.31-416.8,648.34-416.8,1352.34,0,141.02,9.48,324.15,31.81,494.25,88.11,11.52,292.76,36.26,480.7,36.26,341.18,0,666.55-45.53,916.2-128.12,249.38-82.54,396.24-193.19,413.54-311.61.59-4.12,4.39-7.02,8.52-6.64,4.18.43,7.28,4.02,7.02,8.19-40.38,732.33-641.33,1306.01-1368.19,1306.01ZM1285.65,43.06C592.32,107.33,56.56,696.06,56.56,1405.68c0,754.55,607.75,1368.46,1354.75,1368.46,697.24,0,1277.35-533.99,1347.57-1227.22-51.74,100.26-191.58,191.58-403.52,261.75-251.2,83.13-578.29,128.92-921.07,128.92-193.19,0-399.77-30.37-484.29-41.56-3.48-.48-6.27-3.21-6.75-6.69-23.19-172.68-34.92-354.73-34.92-497.89,0-345.62,41.51-675.82,120.88-929.85,68.29-218.85,158-364.42,256.45-418.52Z"/>
  <path class="cls-8" d="M2356.21,1879.52c-5.36,1.71-11.03,3.48-17.03,5.3-151.57,402.18-501.43,704.74-918.66,813.31,4.98.05,10.02.11,15.05.11,314.45,0,616.05-112.96,849.19-318.09,198.49-174.66,333.52-403.68,388.31-654.93-74.07,58.7-181.03,110.98-316.86,154.31Z"/>
  <path class="cls-12" d="M1480.45,160.89c-3.59-80.18-66.36-100.75-96.73-101.66-94.53-2.84-208.4,130.69-291.9,384.4-84.14,255.59-176.91,688.41-110.98,1422.66l182.32-176.37s-1.23-13.82-2.41-28.28c0,0-14.3-177.18-16.01-267.59-5.25-274.23,18.64-530.94,77.02-724.93,58.76-195.12,166.41-360.83,250.34-360.83,28.98,0,28.98,69.84,56.4,95.23l-48.04-242.63Z"/>
  <path class="cls-10" d="M2361.41,1765.33c156.88-55.11,491.31-204.6,348.84-427.03-8.57-13.34-19.07-25.39-32.03-34.6h-266.35c33.31,31.55,50.24,64.65,50.24,98.39,0,83.82-103.96,162.29-292.76,220.99-187.67,58.33-437.16,90.46-702.49,90.46-104.01,0-206.63-4.98-304.97-14.84l-.48-.05-179.1,167.8c88.21,11.52,299.88,31.17,476.09,31.17,339.52-.05,660.23-47.03,903.02-132.29Z"/>
  <path class="cls-9" d="M1478.1,342.3c-143.81,0-297.79,407.11-297.79,1013.14,0,93.14,8.19,215.58,15.75,304.6l384.94-379.9-1.55-897.83c-27.8-29.4-73.38-40.01-101.34-40.01Z"/>
  <g>
    <path class="cls-13" d="M1496.73,1685.31c-80.66,0-194.69-6.27-271.5-15.26l390.45-377.22,838.86-.48c22.55,24.64,32.99,53.4,31.98,87.57-1.82,58.76-85.16,148.04-263.84,205.08-178.14,56.88-423.66,92.34-691.35,99.78-10.61.37-22.23.54-34.6.54Z"/>
    <path d="M1496.73,1693.24c-79.43,0-185.48-6.16-263.89-15.32l-15.75-1.82,374.28-391.1h3.37l863.23-.48,2.36,2.57c23.99,26.24,35.14,56.72,34.01,93.14-1.02,33.74-25.33,72.47-68.34,108.99-48.58,41.19-118.05,76.91-200.96,103.42-178.78,57.1-425.11,92.66-693.49,100.16-10.77.27-22.44.43-34.81.43ZM1230.7,1664c75.89,8.09,192.39,13.44,266.03,13.44,12.21,0,23.78-.16,34.28-.43,267-7.44,511.77-42.79,689.16-99.41,80.93-25.87,148.58-60.58,195.6-100.42,39.05-33.1,61.92-68.61,62.77-97.43.96-30.96-8.09-56.99-27.58-79.48l-842.66.48-377.6,363.24Z"/>
  </g>
  <path d="M2750.14,1409c-11.46,150.29-122.17,258.96-338.5,332.29-378.45,128.33-752.2,149.27-999.16,144.24-169.09-3.43-303.47-19.17-380.06-30.42l167.11-161.16c78.84,10.82,203.47,18.8,297.1,18.8,12.64,0,24.53-.16,35.3-.43,270.21-7.55,518.41-43.44,698.9-101.07,84.46-26.99,155.97-63.74,206.69-106.26,47.99-40.22,75.04-84.3,76.27-124.15,1.34-44.29-13.98-82.48-45.58-113.6l-2.3-2.25-865.48.48-1.55-883.15c0-4.98-1.93-9.75-5.36-13.39-30.1-31.87-79.7-61.43-115.58-61.43-82.7,0-161.38,119.39-221.47,308.29-61.81,194.37-95.87,457.13-95.87,739.77,0,99.35,9.27,226.72,14.51,290.4l-206.21,198.87c-4.45-.86-6.91-1.34-7.12-1.39h0l-11.09,54.1c7.5,1.55,186.44,37.65,459.22,43.28,23.46.48,46.92.75,70.32.75,136.26,0,271.28-8.25,402.29-24.53,192.07-23.94,376.04-65.4,546.79-123.3,125.54-42.58,220.83-98.87,283.28-167.37,55.22-60.63,86.39-132.29,92.55-213.01l-55.01-4.34ZM2459.05,1379.17c-.7,23.3-21.91,54.63-56.67,83.77-45.31,37.97-110.33,71.18-188.1,96.03-175.73,56.13-418.57,91.11-683.59,98.5-100.75.7-220.56-3.11-284.72-8.19l341.18-328.97,854.5-.48c12.59,17.14,18.1,36.1,17.41,59.34ZM1199.85,1355.49c0-639.77,163.09-991.93,276.8-991.93,24.53,0,60.74,7.39,83.23,27.1l1.55,881.38-66.9,65.93-282.85,272.73c-5.14-67.97-11.84-171.77-11.84-255.21Z"/>
  <g>
    <path class="cls-5" d="M3740.52,1431.01c14.35,12.91,26.19,29.08,35.51,48.53,9.27,19.5,13.93,44.62,13.93,75.47s-5.57,58.59-16.6,84.04c-11.09,25.44-26.67,47.61-46.76,66.52-22.44,21-48.9,36.47-79.32,46.49-30.42,10.02-63.74,15.05-100,15.05s-73.7-4.45-109.64-13.28-65.45-18.48-88.53-28.98v-93.89h6.75c25.44,16.76,55.43,30.69,89.87,41.78s67.7,16.6,99.78,16.6c18.85,0,38.94-3.16,60.2-9.43,21.26-6.27,38.51-15.59,51.69-27.85,13.77-13.18,24.05-27.69,30.8-43.6,6.75-15.85,10.12-35.94,10.12-60.2s-3.8-43.81-11.46-59.56-18.21-28.07-31.71-37.06c-13.5-9.27-29.83-15.64-48.95-19.12-19.17-3.43-39.85-5.14-62.02-5.14h-40.44v-74.61h31.44c45.53,0,81.84-9.48,108.99-28.55,27.1-19.01,40.65-46.81,40.65-83.34,0-16.18-3.43-30.32-10.34-42.47s-16.5-22.07-28.76-29.89c-12.91-7.77-26.67-13.18-41.35-16.18-14.68-3-31.28-4.5-49.86-4.5-28.44,0-58.7,5.09-90.78,15.26s-62.29,24.58-90.78,43.12h-4.5v-93.84c21.26-10.5,49.65-20.14,85.16-28.98s69.9-13.28,103.1-13.28,61.43,3,86.29,9,47.35,15.59,67.38,28.76c21.58,14.35,37.92,31.76,48.95,52.11,11.09,20.35,16.6,44.19,16.6,71.45,0,37.17-13.12,69.57-39.31,97.26-26.24,27.69-57.15,45.15-92.82,52.33v6.27c14.35,2.41,30.85,7.39,49.44,15.05,18.69,7.71,34.44,17.25,47.29,28.65Z"/>
    <path class="cls-5" d="M4514.36,1419.28c0,60.84-13.23,115.96-39.74,165.34-26.51,49.44-61.81,87.78-105.83,115.05-30.58,18.85-64.65,32.51-102.25,40.87-37.6,8.41-87.09,12.59-148.52,12.59h-168.98v-669.02h167.16c65.29,0,117.19,4.71,155.7,14.14,38.51,9.43,71.07,22.39,97.75,38.88,45.53,28.44,81.04,66.36,106.48,113.71,25.49,47.29,38.24,103.48,38.24,168.45ZM4421.32,1417.94c0-52.44-9.16-96.62-27.42-132.56-18.26-35.94-45.53-64.27-81.79-84.95-26.35-15-54.36-25.39-84.04-31.23-29.67-5.84-65.18-8.78-106.48-8.78h-83.61v516.32h83.61c42.85,0,80.23-3.16,112.1-9.43,31.92-6.27,61.17-18,87.84-35.03,33.26-21.26,58.22-49.28,74.82-84.04,16.66-34.71,24.96-78.2,24.96-130.31Z"/>
    <path class="cls-5" d="M5441.59,1562.18c0,26.08-6.05,51.85-18.21,77.29s-29.14,47.03-50.99,64.7c-23.99,19.17-51.9,34.17-83.82,44.94-31.92,10.77-70.32,16.18-115.26,16.18-48.26,0-91.59-4.5-130.1-13.5s-77.66-22.33-117.51-40.01v-111.46h6.27c33.85,28.17,72.95,49.86,117.3,65.18,44.35,15.26,85.96,22.92,124.9,22.92,55.11,0,98.01-10.34,128.76-31.01,30.69-20.67,46.06-48.2,46.06-82.7,0-29.67-7.28-51.52-21.8-65.61-14.51-14.09-36.64-25.01-66.31-32.78-22.44-6-46.81-10.93-73-14.84-26.19-3.91-53.99-8.84-83.34-14.84-59.29-12.59-103.26-34.06-131.86-64.49-28.6-30.42-42.9-70-42.9-118.85,0-56.02,23.67-101.92,71.02-137.7,47.35-35.78,107.39-53.72,180.18-53.72,47.03,0,90.14,4.5,129.4,13.5s73.97,20.08,104.23,33.26v105.14h-6.27c-25.44-21.58-58.97-39.47-100.42-53.72-41.51-14.25-83.98-21.37-127.42-21.37-47.62,0-85.91,9.91-114.83,29.67s-43.38,45.26-43.38,76.38c0,27.85,7.18,49.76,21.58,65.61,14.35,15.91,39.69,28.01,75.95,36.42,19.17,4.18,46.44,9.27,81.79,15.26s65.29,12.16,89.87,18.42c49.7,13.18,87.2,33.1,112.32,59.77,25.23,26.73,37.81,64.06,37.81,111.94Z"/>
    <path class="cls-5" d="M5680.63,1753.18h-84.46v-699.17h84.46v699.17Z"/>
    <path class="cls-5" d="M5956.09,1167.23h-95.28v-87.62h95.28v87.62ZM5950.73,1753.18h-84.46v-501.91h84.46v501.91Z"/>
    <path class="cls-5" d="M6519.75,1721.74c-28.17,13.5-54.9,23.99-80.23,31.44-25.33,7.5-52.22,11.25-80.66,11.25-36.26,0-69.52-5.3-99.78-15.96-30.26-10.6-56.18-26.73-77.72-48.31-21.85-21.58-38.78-48.85-50.77-81.79-12-32.94-18-71.45-18-115.48,0-82.05,22.55-146.49,67.65-193.24s104.6-70.11,178.62-70.11c28.76,0,56.99,4.07,84.73,12.16,27.69,8.09,53.08,18,76.16,29.67v93.89h-4.5c-25.76-20.08-52.33-35.51-79.75-46.28-27.42-10.77-54.15-16.18-80.23-16.18-47.94,0-85.75,16.12-113.44,48.31-27.69,32.19-41.56,79.48-41.56,141.77s13.55,107.01,40.65,139.52c27.1,32.51,65.24,48.74,114.35,48.74,17.09,0,34.44-2.25,52.11-6.75,17.67-4.5,33.53-10.34,47.62-17.51,12.27-6.27,23.83-12.96,34.6-19.98s19.33-13.12,25.6-18.21h4.5v93.03h.05Z"/>
    <path class="cls-5" d="M7087.59,1510.98h-369.83c0,30.85,4.66,57.74,13.93,80.66s22.01,41.72,38.19,56.4c15.59,14.35,34.06,25.17,55.49,32.35s44.99,10.77,70.75,10.77c34.17,0,68.5-6.8,103.16-20.46,34.6-13.6,59.24-27.05,73.91-40.22h4.5v92.12c-28.44,12-57.52,22.01-87.2,30.1-29.67,8.09-60.84,12.16-93.46,12.16-83.29,0-148.31-22.55-195.01-67.65-46.76-45.1-70.11-109.1-70.11-192.12s22.39-147.24,67.16-195.49c44.78-48.2,103.75-72.36,176.8-72.36,67.7,0,119.92,19.76,156.61,59.29s55.06,95.71,55.06,168.5v45.95h.05ZM7005.38,1446.28c-.32-44.35-11.46-78.63-33.47-102.89s-55.49-36.42-100.42-36.42-81.25,13.34-108.08,40.01-41.99,59.77-45.63,99.3h287.62Z"/>
    <path class="cls-5" d="M7544.25,1343.39h-4.5c-12.59-3-24.8-5.14-36.64-6.53-11.84-1.34-25.82-2.04-41.99-2.04-26.08,0-51.2,5.78-75.47,17.3-24.26,11.52-47.62,26.46-70.11,44.72v356.33h-84.46v-501.91h84.46v74.13c33.53-26.94,63.15-46.06,88.75-57.31s51.74-16.87,78.41-16.87c14.68,0,25.33.37,31.92,1.12,6.59.75,16.5,2.2,29.67,4.28v86.77h-.05Z"/>
  </g>
  <rect class="cls-7" x="1525.71" y="130.41" width="365.06" height="365.06"/>
  <rect class="cls-2" x="1525.71" y="549.36" width="365.06" height="365.06"/>
  <rect class="cls-11" x="1945.94" y="549.36" width="365.06" height="365.06"/>
  <rect class="cls-6" x="2366.23" y="969.97" width="365.06" height="365.06"/>
  <rect class="cls-1" x="1525.71" y="969.97" width="365.06" height="365.06"/>
  <rect class="cls-3" x="1945.94" y="969.97" width="365.06" height="365.06"/>
  <path d="M2785.87,1349.82h0v-435.17l-419.64-.27v-418.95h-420.29V75.52h-434.75s-2.84-10.77-15.48-24.21c0,0-22.23,5.95-22.23,18.59v1310.08l23.19,8.36h1266.43l22.76-38.51ZM1890.56,1334.12h-362.82v-364.74h362.82v364.74ZM1890.56,915.18h-362.82v-366.4h362.82v366.4ZM1890.56,494.57h-362.82V129.72h362.82v364.85ZM2311.06,1334.12h-366.3v-364.74h366.3v364.74ZM2311.06,915.18h-366.3v-366.4h366.3v366.4ZM2731.08,1334.12h-364.58v-364.74h364.58v364.74Z"/>
</svg>