<?xml version="1.0" encoding="utf-8"?>
<!-- Generator: Adobe Illustrator 25.2.1, SVG Export Plug-In . SVG Version: 6.00 Build 0)  -->
<svg version="1.1"
	 id="svg3140" inkscape:output_extension="org.inkscape.output.svg.inkscape" inkscape:version="0.46" sodipodi:docname="FreeCAD05.svg" sodipodi:version="0.32" xmlns:cc="http://creativecommons.org/ns#" xmlns:dc="http://purl.org/dc/elements/1.1/" xmlns:inkscape="http://www.inkscape.org/namespaces/inkscape" xmlns:rdf="http://www.w3.org/1999/02/22-rdf-syntax-ns#" xmlns:sodipodi="http://sodipodi.sourceforge.net/DTD/sodipodi-0.dtd" xmlns:svg="http://www.w3.org/2000/svg"
	 xmlns="http://www.w3.org/2000/svg" xmlns:xlink="http://www.w3.org/1999/xlink" x="0px" y="0px" viewBox="0 0 59.4 57.7"
	 style="enable-background:new 0 0 59.4 57.7;" xml:space="preserve">
<style type="text/css">
	.st0{fill-rule:evenodd;clip-rule:evenodd;fill:url(#rect3663_1_);stroke:#370700;stroke-width:1.382;stroke-miterlimit:2.8944;}
	.st1{fill-rule:evenodd;clip-rule:evenodd;fill:url(#path3659_1_);stroke:#000137;stroke-width:1.382;stroke-miterlimit:2.8944;}
</style>
<defs>
	
		<inkscape:perspective  id="perspective3148" inkscape:persp3d-origin="32 : 21.333333 : 1" inkscape:vp_x="0 : 32 : 1" inkscape:vp_y="0 : 1000 : 0" inkscape:vp_z="64 : 32 : 1" sodipodi:type="inkscape:persp3d">
		</inkscape:perspective>
</defs>
<sodipodi:namedview  bordercolor="#666666" borderopacity="1.0" id="base" inkscape:current-layer="layer1" inkscape:cx="32" inkscape:cy="32" inkscape:document-units="px" inkscape:grid-bbox="true" inkscape:pageopacity="0.0" inkscape:pageshadow="2" inkscape:window-height="684" inkscape:window-width="640" inkscape:window-x="0" inkscape:window-y="93" inkscape:zoom="5.5" pagecolor="#ffffff" showgrid="true">
	</sodipodi:namedview>
<g id="layer1" inkscape:groupmode="layer" inkscape:label="Layer 1">
	<g id="g3813" transform="matrix(0.850641, 0, 0, 0.850641, 187.827, -0.196001)">
		
			<radialGradient id="rect3663_1_" cx="412.0876" cy="205.1318" r="19.5714" gradientTransform="matrix(0.8067 0.197 -0.5432 2.2247 -417.0092 -510.6585)" gradientUnits="userSpaceOnUse">
			<stop  offset="0" style="stop-color:#FF6D0F"/>
			<stop  offset="1" style="stop-color:#FF1000"/>
		</radialGradient>
		<path id="rect3663" sodipodi:nodetypes="ccccccccccc" class="st0" d="M-217.3,4.6v55.5h12.4V38.4h8.8v-8.6h-8.8v-9.2h21.6v-16
			H-217.3z"/>
		
			<radialGradient id="path3659_1_" cx="162.338" cy="-1426.3923" r="19.5714" gradientTransform="matrix(0.4477 0.6995 -0.7476 0.4785 -1322.7847 602.916)" gradientUnits="userSpaceOnUse">
			<stop  offset="0" style="stop-color:#71B2F8"/>
			<stop  offset="1" style="stop-color:#002795"/>
		</radialGradient>
		<path id="path3659" class="st1" d="M-162.2,21.1l-7.2,4.1l-3.2-1.1l-3-7.8l-4.8,0.3l-2.2,8l-3,1.5l-7.6-3.3l-3.2,3.6l4.1,7.2
			l-1.1,3.2l-7.8,3l0.3,4.8l8,2.2l1.5,3l-3.3,7.6l3.6,3.2l7.2-4.1l3.2,1.1l3,7.7l4.8-0.3l2.2-8l3-1.5l7.6,3.4l3.2-3.6l-4.1-7.2
			l1.1-3.2l7.7-3l-0.2-4.8l-8-2.2l-1.5-3l3.3-7.6L-162.2,21.1z M-173,32.9l1.5,0.9l1.3,1.2l1,1.4l0.7,1.5l0.4,1.7l0.1,1.7l-0.2,1.7
			l-0.6,1.6l-0.9,1.5l-1.1,1.3l-1.4,1l-1.5,0.7l-1.7,0.4l-1.7,0.1l-1.7-0.2l-1.6-0.6l-1.5-0.9l-1.3-1.2l-1-1.4l-0.7-1.5l-0.4-1.7
			l-0.1-1.7l0.2-1.7l0.6-1.6l0.9-1.5l1.1-1.3l1.4-1l1.5-0.7l1.7-0.4l1.7-0.1l1.7,0.2L-173,32.9z"/>
	</g>
</g>
</svg>
